<svg width="30" height="30" viewBox="0 0 30 30" fill="none" xmlns="http://www.w3.org/2000/svg">
<path d="M2.544 16V14.464H3.744V6.624H2.576V5.088H6.784V16H2.544ZM6.784 16V14.368H13.056V16H6.784ZM8.448 12.864C8.448 12.2773 8.33067 11.8507 8.096 11.584C7.86133 11.3173 7.49333 11.184 6.992 11.184H10.016V13.36H8.448V12.864ZM6.784 11.184V9.584H10.016V11.184H6.784ZM9.776 14.368C10.3627 14.368 10.7733 14.2347 11.008 13.968C11.2533 13.6907 11.376 13.2427 11.376 12.624V11.92H13.056V14.368H9.776ZM6.992 9.584C7.49333 9.584 7.86133 9.456 8.096 9.2C8.33067 8.93333 8.448 8.50667 8.448 7.92V7.744H10.016V9.584H6.992ZM6.784 6.688V5.088H12.928V6.688H6.784ZM11.248 8.48C11.248 7.85067 11.1253 7.39733 10.88 7.12C10.6347 6.832 10.224 6.688 9.648 6.688H12.928V9.024H11.248V8.48Z" fill="black"/>
<path d="M12.544 21V19.464H13.744V11.624H12.576V10.088H16.784V19.464H18.736V21H12.544ZM16.784 16.648V15.048H18.592C19.1893 15.048 19.6587 14.9147 20 14.648C20.3413 14.3707 20.512 13.944 20.512 13.368C20.512 12.8027 20.3413 12.3813 20 12.104C19.6587 11.8267 19.1893 11.688 18.592 11.688H16.784V10.088H19.552C20.768 10.088 21.744 10.3653 22.48 10.92C23.216 11.464 23.584 12.28 23.584 13.368C23.584 14.4667 23.216 15.288 22.48 15.832C21.744 16.376 20.768 16.648 19.552 16.648H16.784Z" fill="black"/>
</svg>
